<?xml version="1.0" encoding="utf-8"?>
<!-- Svg Vector Icons : http://www.onlinewebfonts.com/icon -->
<!DOCTYPE svg PUBLIC "-//W3C//DTD SVG 1.1//EN" "http://www.w3.org/Graphics/SVG/1.1/DTD/svg11.dtd">
<svg version="1.1" xmlns="http://www.w3.org/2000/svg" xmlns:xlink="http://www.w3.org/1999/xlink" x="0px" y="0px" viewBox="0 0 1000 1000" enable-background="new 0 0 1000 1000" xml:space="preserve">
<metadata> Svg Vector Icons : http://www.onlinewebfonts.com/icon </metadata>
<g><path d="M632.5,297.9H230.2c-8.5,0-15.4,6.9-15.4,15.4c0,8.5,6.9,15.3,15.4,15.3h402.3c8.3,0,15.2-6.9,15.2-15.4C647.7,304.7,640.8,297.9,632.5,297.9z"/><path d="M632.5,402.9H230.2c-8.5,0-15.4,6.8-15.4,15.4c0,8.4,6.9,15.3,15.4,15.3h402.3c8.3,0,15.2-6.9,15.2-15.3C647.7,409.7,640.8,402.9,632.5,402.9z"/><path d="M632.5,507.7H230.2c-8.5,0-15.4,6.9-15.4,15.4s6.9,15.4,15.4,15.4h402.3c8.3,0,15.2-6.9,15.2-15.4S640.8,507.7,632.5,507.7z"/><path d="M872.7,661.7V172.5c0-19.4-15.8-35.4-35.3-35.4H45.3C25.8,137.2,10,153.1,10,172.5v489.2c0,19.4,15.8,35.4,35.3,35.4h409l243.3,163.2c2.5,1.7,5.6,2.5,8.6,2.5c2.4,0,5-0.7,7.2-1.7c5-2.5,8.2-7.8,8.2-13.6V697.2h116.1C856.9,697.2,872.7,681.2,872.7,661.7z M706,666.5c-8.5,0-15.4,6.9-15.4,15.4v137L467.5,669.1c-2.5-1.7-5.6-2.5-8.6-2.5H45.3c-2.5,0-4.7-2-4.7-4.8V172.5c0-2.6,2-4.7,4.7-4.7h792.2c2.5,0,4.7,2.1,4.7,4.7v489.2c0,2.7-2,4.8-4.7,4.8H706z"/><path d="M954.6,219.8h-41c-8.5,0-15.4,6.8-15.4,15.3s6.9,15.4,15.4,15.4h41c2.5,0,4.7,2.1,4.7,4.7v460.1c0,2.5-2,4.7-4.7,4.7h-91.5c-8.5,0-15.4,6.9-15.4,15.4V793l-82-52.9c-7-4.7-16.6-2.7-21.2,4.5s-2.5,16.6,4.7,21.2l105.6,68.3c2.4,1.6,5.2,2.4,8.3,2.4c2.4,0,5-0.7,7.3-1.9c4.8-2.7,8-7.8,8-13.4v-70.6h76.3c19.3,0,35.3-15.8,35.3-35.3V255C989.9,235.6,974,219.8,954.6,219.8z"/></g>
</svg>