<?xml version="1.0" encoding="utf-8"?>
<!-- Svg Vector Icons : http://www.onlinewebfonts.com/icon -->
<!DOCTYPE svg PUBLIC "-//W3C//DTD SVG 1.1//EN" "http://www.w3.org/Graphics/SVG/1.1/DTD/svg11.dtd">
<svg version="1.1" xmlns="http://www.w3.org/2000/svg" xmlns:xlink="http://www.w3.org/1999/xlink" x="0px" y="0px" viewBox="0 0 1000 1000" enable-background="new 0 0 1000 1000" xml:space="preserve">
<metadata> Svg Vector Icons : http://www.onlinewebfonts.com/icon </metadata>
<g><path d="M504.4,322.2c-99.2,0-179.9,80.7-179.9,179.8c0,99.2,80.7,179.9,179.9,179.9c99.2,0,179.9-80.7,179.9-179.9C684.3,402.9,603.6,322.2,504.4,322.2z M504.4,637.1c-74.5,0-135.1-60.6-135.1-135.1c0-74.5,60.6-135.1,135.1-135.1S639.5,427.5,639.5,502C639.5,576.5,578.9,637.1,504.4,637.1z"/><path d="M500,150C229.4,150,10,500,10,500s219.4,350,490,350c270.6,0,490-350,490-350S770.6,150,500,150z M813.7,644.4C765.3,692,716.2,729.8,668,756.7c-57.8,32.2-114.3,48.5-168,48.5c-53.7,0-110.3-16.3-168-48.5c-48.2-26.9-97.2-64.6-145.7-112.3C129,588.1,85.9,531,64,500c21.9-31.1,65-88.1,122.2-144.4c48.5-47.7,97.5-85.4,145.7-112.3c57.8-32.2,114.3-48.5,168-48.5c53.7,0,110.3,16.3,168,48.5c48.2,26.9,97.2,64.6,145.7,112.3C871,411.9,914.1,468.9,936,500C914.1,531,871,588.1,813.7,644.4z"/></g>
</svg>