<?xml version="1.0" encoding="utf-8"?>
<!-- Svg Vector Icons : http://www.onlinewebfonts.com/icon -->
<!DOCTYPE svg PUBLIC "-//W3C//DTD SVG 1.1//EN" "http://www.w3.org/Graphics/SVG/1.1/DTD/svg11.dtd">
<svg version="1.1" xmlns="http://www.w3.org/2000/svg" xmlns:xlink="http://www.w3.org/1999/xlink" x="0px" y="0px" viewBox="0 0 1000 1000" enable-background="new 0 0 1000 1000" xml:space="preserve">
<metadata> Svg Vector Icons : http://www.onlinewebfonts.com/icon </metadata>
<g><g transform="translate(0.000000,437.000000) scale(0.100000,-0.100000)"><path d="M5374.2,4245.3c-872.1-112.4-1438.5-640.6-1629.6-1515c-36-168.6-47.2-323.7-56.2-914.8l-13.5-714.8l-474.3-4.5l-474.3-6.7l-6.7-858.6l-4.5-860.9h483.3h483.3v-2450v-2450h1022.7h1022.7v2450v2450h685.5h685.5l9,51.7c6.7,27,42.7,368.6,80.9,757.5c38.2,388.8,76.4,755.2,83.2,815.9l13.5,105.6h-780h-779.9l6.7,591.1c6.7,669.8,18,712.5,182.1,820.4l89.9,60.7l627.1,6.7l624.9,6.8v842.9V4270l-869.9-2.2C5904.7,4265.5,5450.7,4256.5,5374.2,4245.3z"/></g></g>
</svg>