<?xml version="1.0" encoding="utf-8"?>
<!-- Svg Vector Icons : http://www.onlinewebfonts.com/icon -->
<!DOCTYPE svg PUBLIC "-//W3C//DTD SVG 1.1//EN" "http://www.w3.org/Graphics/SVG/1.1/DTD/svg11.dtd">
<svg version="1.1" xmlns="http://www.w3.org/2000/svg" xmlns:xlink="http://www.w3.org/1999/xlink" x="0px" y="0px" viewBox="0 0 1000 1000" enable-background="new 0 0 1000 1000" xml:space="preserve">
<metadata> Svg Vector Icons : http://www.onlinewebfonts.com/icon </metadata>
<g><path d="M901.7,583.5h0.3l-2.5,2.4c-2.6,2.6-5.3,5.2-8,7.8L535.8,940.9c-19.7,18.5-51.8,18.5-71.5,0L108.6,593.8c-2.8-2.7-5.6-5.3-8.3-8.1l-2.3-2.3h0.3C43.7,526.3,10,449,10,363.7C10,187.8,152.6,45.2,328.5,45.2c63.2,0,122,18.6,171.5,50.4c49.5-31.8,108.3-50.4,171.5-50.4C847.4,45.2,990,187.8,990,363.7C990,449,956.3,526.3,901.7,583.5z M671.5,94.2c-65.1,0-124.9,23.1-171.5,61.6c-46.6-38.5-106.4-61.6-171.5-61.6C179.7,94.2,59,214.9,59,363.7c0,84,38.4,159,98.6,208.4L500,900.9L842.4,572c60.2-49.4,98.6-124.4,98.6-208.3C941,214.9,820.3,94.2,671.5,94.2z"/></g>
</svg>