<?xml version="1.0" encoding="utf-8"?>
<!-- Svg Vector Icons : http://www.onlinewebfonts.com/icon -->
<!DOCTYPE svg PUBLIC "-//W3C//DTD SVG 1.1//EN" "http://www.w3.org/Graphics/SVG/1.1/DTD/svg11.dtd">
<svg version="1.1" xmlns="http://www.w3.org/2000/svg" xmlns:xlink="http://www.w3.org/1999/xlink" x="0px" y="0px" viewBox="0 0 1000 1000" enable-background="new 0 0 1000 1000" xml:space="preserve">
<metadata> Svg Vector Icons : http://www.onlinewebfonts.com/icon </metadata>
<g><path d="M436.3,649.8c-22.9,100.7-45.5,197.8-94.7,274.5c-15.1,23.4-30.2,53-56,65.7c-38-195.6,41.4-360.4,72.8-524.6c-40.1-81.5-15.1-220,70.6-235.5c124.1-22.9,91.5,127,70.3,196.8c-11.4,38.2-32.4,74.7-29.2,116.6c6.8,88.3,118,93.9,174.9,48.7c81.5-65,105.1-190.8,97.3-293.9C730.3,140.8,552.1,62.7,395.2,125.5c-81,32.4-154.5,106.8-165.2,216.1c-5.6,57.7,6.6,103.7,29.2,136c3.4,4.9,15.3,13.6,17,26.8c3.6,26.5-12.2,55.5-26.8,75.2c-80.5-23.1-122.1-95.6-128.7-186.9C105.6,184.4,276.5,26,477.7,11.4C692.3-4.5,862.9,119.6,878.4,300.4c11.7,134.3-36,269.6-111.7,342.4c-56.9,54.7-178.1,108.3-276.9,56C467.7,686.8,458,672.5,436.3,649.8z"/></g>
</svg>