<?xml version="1.0" encoding="utf-8"?>
<!-- Svg Vector Icons : http://www.onlinewebfonts.com/icon -->
<!DOCTYPE svg PUBLIC "-//W3C//DTD SVG 1.1//EN" "http://www.w3.org/Graphics/SVG/1.1/DTD/svg11.dtd">
<svg version="1.1" xmlns="http://www.w3.org/2000/svg" xmlns:xlink="http://www.w3.org/1999/xlink" x="0px" y="0px" viewBox="0 0 1000 1000" enable-background="new 0 0 1000 1000" xml:space="preserve">
<metadata> Svg Vector Icons : http://www.onlinewebfonts.com/icon </metadata>
<g><g><g id="Search"><g><path d="M981.4,940L761.8,720.4c65.8-75.4,105.9-173.7,105.9-281.6C867.7,202,675.7,10,438.8,10C202,10,10,202,10,438.8c0,236.8,192,428.8,428.8,428.8c107.9,0,206.2-40.1,281.6-105.9L940,981.4c11.4,11.4,30,11.4,41.4,0C992.9,970,992.9,951.5,981.4,940z M712.8,683.3c-7.6-0.1-15.3,2.7-21.1,8.5c-5.8,5.8-8.6,13.5-8.5,21.1c-65,58-150.4,93.6-244.4,93.6c-203,0-367.6-164.6-367.6-367.6S235.8,71.3,438.8,71.3s367.6,164.6,367.6,367.6C806.4,532.8,770.9,618.3,712.8,683.3z"/></g></g></g><g></g><g></g><g></g><g></g><g></g><g></g><g></g><g></g><g></g><g></g><g></g><g></g><g></g><g></g><g></g></g>
</svg>