<?xml version="1.0" encoding="utf-8"?>
<!-- Svg Vector Icons : http://www.onlinewebfonts.com/icon -->
<!DOCTYPE svg PUBLIC "-//W3C//DTD SVG 1.1//EN" "http://www.w3.org/Graphics/SVG/1.1/DTD/svg11.dtd">
<svg version="1.1" xmlns="http://www.w3.org/2000/svg" xmlns:xlink="http://www.w3.org/1999/xlink" x="0px" y="0px" viewBox="0 0 1000 1000" enable-background="new 0 0 1000 1000" xml:space="preserve">
<metadata> Svg Vector Icons : http://www.onlinewebfonts.com/icon </metadata>
<g><g><path d="M990,196.1c-36.1,16-74.8,26.8-115.5,31.7c41.5-24.9,73.4-64.3,88.4-111.2c-38.9,23-81.9,39.8-127.7,48.8c-36.7-39.1-88.9-63.5-146.8-63.5c-111,0-201.1,90-201.1,201.1c0,15.8,1.8,31.1,5.2,45.8c-167.1-8.4-315.2-88.4-414.4-210.1C60.9,168.3,51,202.8,51,239.7C51,309.4,86.5,371,140.5,407c-33-1-64-10.1-91.1-25.1c0,0.8,0,1.7,0,2.5c0,97.4,69.3,178.7,161.3,197.1c-16.9,4.6-34.6,7.1-53,7.1c-13,0-25.6-1.3-37.8-3.6c25.6,79.9,99.8,138,187.8,139.6c-68.8,53.9-155.5,86.1-249.7,86.1c-16.2,0-32.2-0.9-48-2.8c89,57.1,194.7,90.3,308.2,90.3c369.8,0,572.1-306.4,572.1-572.1c0-8.7-0.2-17.4-0.6-26C929,271.8,963,236.4,990,196.1z"/></g><g></g><g></g><g></g><g></g><g></g><g></g><g></g><g></g><g></g><g></g><g></g><g></g><g></g><g></g><g></g></g>
</svg>